                <svg
                    id="svg"
                    version="1.1"
                    viewBox="144 144 512 512"
                    xmlns="http://www.w3.org/2000/svg"
                >
                      <g id="IconSvg_bgCarrier" stroke-width="0"></g>
                      <g
                        id="IconSvg_tracerCarrier"
                        stroke-linecap="round"
                        stroke-linejoin="round"
                        stroke="#CCCCCC"
                      ></g>
                      <g id="IconSvg_iconCarrier">
                        <g xmlns="http://www.w3.org/2000/svg">
                          <path d="m179.58 617.6h392.83c8.6914 0 15.742-7.0391 15.742-15.742 0-116.98-95.172-212.15-212.17-212.15-116.97 0.015625-212.15 95.188-212.15 212.15 0 8.707 7.0547 15.746 15.746 15.746zm196.41-196.39c94.324 0 171.99 72.629 180 164.92h-359.98c7.9961-92.293 85.664-164.92 179.98-164.92z" />
                          <path d="m281.26 277.13c0 52.238 42.508 94.746 94.746 94.746 52.238 0 94.746-42.492 94.746-94.746 0-52.254-42.508-94.746-94.746-94.746-52.254 0.011719-94.746 42.508-94.746 94.746zm157.99 0c0 34.875-28.387 63.258-63.258 63.258-34.875 0-63.258-28.387-63.258-63.258 0-34.875 28.371-63.258 63.258-63.258 34.887-0.003906 63.258 28.383 63.258 63.258z" />
                          <path d="m636.16 273.21c0-8.707-7.0547-15.742-15.742-15.742h-36.195l-0.003906-36.195c0-8.707-7.0547-15.742-15.742-15.742-8.6914 0-15.742 7.0391-15.742 15.742v36.195h-36.195c-8.6914 0-15.742 7.0391-15.742 15.742 0 8.707 7.0547 15.742 15.742 15.742h36.195v36.211c0 8.707 7.0547 15.742 15.742 15.742 8.6914 0 15.742-7.0391 15.742-15.742v-36.211l36.195 0.003906c8.6914 0 15.746-7.0391 15.746-15.746z" />
                        </g>
                      </g>
                    </svg>