                    <svg
                      version="1.1"
                      xmlns="http://www.w3.org/2000/svg"
                      x="0px"
                      y="0px"
                      viewBox="0 0 256 256"
                      enable-background="new 0 0 256 256"
                    >
                      <metadata>
                        {" "}
                        Svg Vector Icons : http://www.onlinewebfonts.com/icon{" "}
                      </metadata>
                      <g>
                        <g>
                          <g>
                            <path d="M116.7,10.8C87.9,13.8,62.4,26.2,42.5,47c-17.6,18.2-28.3,40.9-31.9,67.1c-0.9,6.8-0.8,23,0.3,29.8c2.1,13.3,5.6,24.7,11.2,35.9c15.8,31.9,44.4,54.5,79.4,62.8c12.3,2.9,28.8,3.7,41.9,2c15.8-2.1,32.7-8,45.9-16c31.2-19.2,51.2-49.9,56.2-86.5c1-7,0.9-23-0.3-30.3c-3.9-26.4-15.9-49.8-34.9-68.2c-17.9-17.3-40.3-28.3-64.9-32.1C138.9,10.6,122.6,10.1,116.7,10.8z M141.9,29.1c33.6,4.9,62.2,25.9,76.7,56.4c13.2,27.7,12.6,60.5-1.6,88.1c-2.6,5.1-7.8,13.1-10.6,16.4l-1.7,2l-70.4-70.1C95.7,83.2,64,51.5,63.9,51.4c-0.1-0.1,1.7-1.7,4-3.3c13.3-9.9,29-16.4,45.7-19C120,28.1,135.3,28.1,141.9,29.1z M152.2,164.7l40,39.9l-1.7,1.4c-3.6,3.1-13,9-19,11.8c-35,16.9-76.6,12.1-106.8-12.3c-4.9-4-13.5-12.9-17.2-17.8c-26.4-35.4-26.4-83.7,0.2-119.3l3.3-4.4l30.6,30.5C98.4,111.1,130.2,142.8,152.2,164.7z" />
                          </g>
                        </g>
                      </g>
                    </svg>