             <svg
              version="1.1"
              xmlns="http://www.w3.org/2000/svg"
              x="0px"
              y="0px"
              viewBox="0 0 256 256"
              enable-background="new 0 0 256 256"
            >
              <metadata>
                {" "}
                Svg Vector Icons : http://www.onlinewebfonts.com/icon{" "}
              </metadata>
              <g>
                <g>
                  <g>
                    <path d="M60.7,10.8c-0.7,0.4-1.4,1.3-1.7,1.9c-0.4,0.8-0.5,33.9-0.5,112.2c0,124.6-0.3,113.4,3.5,117.7c2.4,2.7,4.3,3.5,8.2,3.5c5.1,0,4.9,0.1,32-26.6c13.7-13.5,25.2-24.7,25.4-24.7s11.7,11,25.6,24.5c27.8,26.9,27.5,26.7,32.9,26.7c1.6,0,3.5-0.2,4.2-0.5c2.2-0.8,4.9-3.7,6.2-6.5l1.2-2.7V124.9c0-73.4-0.1-111.5-0.5-112.1c-0.2-0.5-1-1.3-1.7-1.8l-1.3-1h-66.1C67.3,10,61.8,10.1,60.7,10.8z M187.8,127.7v107.9l-1.2,0.6c-1.1,0.5-1.4,0.3-5.3-3.5c-2.2-2.1-14.7-14.3-27.7-26.9c-25.3-24.5-25.2-24.4-28.1-22.9c-0.7,0.3-13,12.3-27.5,26.5c-14.5,14.2-26.7,26.2-27.1,26.5c-0.6,0.5-1,0.5-1.7,0.1l-1-0.5V127.7V19.8H128h59.8V127.7z" />
                  </g>
                </g>
              </g>
            </svg>