<svg
   viewBox="0 0 24 24"
   version="1.1"
   id="svg2"
   xmlns="http://www.w3.org/2000/svg">
  <defs
     id="defs2">
    <linearGradient
       id="linearGradient8">
      <stop
         style="stop-color:#070a4b;stop-opacity:0.84666669;"
         offset="0"
         id="stop11" />
      <stop
         style="stop-color:#a51cc8;stop-opacity:1;"
         offset="1"
         id="stop8" />
    </linearGradient>
    <linearGradient
       xlink:href="#linearGradient8"
       id="linearGradient9"
       x1="15.182197"
       y1="5.0709572"
       x2="25.373603"
       y2="5.0709572"
       gradientUnits="userSpaceOnUse"
       gradientTransform="translate(-4.1334671,1.2730845)" />
  </defs>
  <path
     fill="none"
     d="M 1.9332024,-0.47151276 H 25.933203 V 23.528488 H 1.9332024 Z"
     id="path1" />
  <g
     id="g4"
     transform="translate(3.4891945,0.80157171)"
     style="fill:none;fill-opacity:1">
    <path
       fill="none"
       d="M 0,0 H 24 V 24 H 0 Z"
       id="path3"
       style="fill:none;fill-opacity:1" />
    <path
       d="m 10,3 h 4 a 8,8 0 1 1 0,16 v 3.5 C 9,20.5 2,17.5 2,11 a 8,8 0 0 1 8,-8 z m 2,14 h 2 A 6,6 0 1 0 14,5 h -4 a 6,6 0 0 0 -6,6 c 0,3.61 2.462,5.966 8,8.48 z"
       id="path4"
       style="fill:none;fill-opacity:1" />
  </g>
  <text
     xml:space="preserve"
     style="fill:#000000;fill-opacity:1;stroke:none;stroke-width:11.339;stroke-linecap:round;stroke-linejoin:round;stroke-opacity:1;font-size:8px;stroke-dasharray:none"
     x="8.5815325"
     y="8.5815325"
     id="text7"><tspan
       id="tspan7"></tspan></text>
  <g
     id="g14"
     transform="translate(-3.3948919,3.3005894)">
    <g
       id="path5"
       transform="rotate(0.62896995,-12.996808,-321.63344)">
      <path
         style="color:#000000;fill:#921c92;-inkscape-stroke:none"
         d="m 16.884086,-0.81925354 h 4 a 8.0000009,8.0000009 0 1 1 0,16.00000154 v 3.5 c -5,-2 -11.9999995,-5 -11.9999995,-11.5000006 a 8,8 0 0 1 7.9999995,-8.00000094 z m 2,14.00000154 h 2 a 6.0000009,6.0000009 0 1 0 0,-12.0000015 h -4 a 6,6 0 0 0 -6,6.0000009 c 0,3.6100006 2.462,5.9660006 8,8.4800006 z"
         id="path13" />
    </g>
    <path
       style="font-size:8px;font-family:'Bodoni MT';-inkscape-font-specification:'Bodoni MT';fill:url(#linearGradient9);stroke-width:11.339;stroke-linecap:round;stroke-linejoin:round"
       d="M 11.056543,9.1838857 V 4.3440418 h -0.5625 V 4.144823 h 0.519531 q 0.386719,0 0.800781,-0.058594 v 5.0976567 h 0.503906 v 0.199219 h -1.824218 v -0.199219 z m 2.132812,0 -1.285156,-1.511719 1.246094,-1.1601562 h -0.65625 V 6.3127918 h 1.648437 v 0.1992187 h -0.742187 l -0.867188,0.8007812 1.609375,1.871094 h 0.34375 v 0.199219 H 12.630761 V 9.1838857 Z M 19.57998,6.5120105 18.451073,9.4807607 h -0.132812 l -0.898438,-2.128906 -0.855468,2.128906 H 16.435448 L 15.189355,6.5120105 H 14.701073 V 6.3127918 h 1.816407 v 0.1992187 h -0.527344 l 0.808594,1.9257812 0.855468,-2.1249999 h 0.125 l 0.890625,2.1249999 0.71875,-1.9257812 H 18.822167 V 6.3127918 h 1.230469 v 0.1992187 z"
       id="text8"
       aria-label="kw" />
  </g>
</svg>
