<svg
   viewBox="0 0 24 24"
   version="1.1"
   id="svg2"
   xmlns="http://www.w3.org/2000/svg">
  <defs
     id="defs2" />
  <path
     fill="none"
     d="M 1.9332024,-0.47151276 H 25.933203 V 23.528488 H 1.9332024 Z"
     id="path1" />
  <g
     id="g4"
     transform="translate(3.4891945,0.80157171)"
     style="fill:none;fill-opacity:1">
    <path
       fill="none"
       d="M 0,0 H 24 V 24 H 0 Z"
       id="path3"
       style="fill:none;fill-opacity:1" />
    <path
       d="m 10,3 h 4 a 8,8 0 1 1 0,16 v 3.5 C 9,20.5 2,17.5 2,11 a 8,8 0 0 1 8,-8 z m 2,14 h 2 A 6,6 0 1 0 14,5 h -4 a 6,6 0 0 0 -6,6 c 0,3.61 2.462,5.966 8,8.48 z"
       id="path4"
       style="fill:none;fill-opacity:1" />
  </g>
  <text
     xml:space="preserve"
     style="fill:#000000;fill-opacity:1;stroke:none;stroke-width:11.339;stroke-linecap:round;stroke-linejoin:round;stroke-opacity:1;font-size:8px;stroke-dasharray:none"
     x="8.5815325"
     y="8.5815325"
     id="text7"><tspan
       id="tspan7"></tspan></text>
  <g
     id="g15">
    <g
       id="g14"
       transform="translate(-3.3948919,2.9233792)">
      <g
         id="path5"
         transform="rotate(0.62896995,-12.996808,-321.63344)">
        <path
           style="color:#000000;fill:#921c92;-inkscape-stroke:none"
           d="m 16.884086,-0.81925354 h 4 a 8.0000009,8.0000009 0 1 1 0,16.00000154 v 3.5 c -5,-2 -11.9999995,-5 -11.9999995,-11.5000006 a 8,8 0 0 1 7.9999995,-8.00000094 z m 2,14.00000154 h 2 a 6.0000009,6.0000009 0 1 0 0,-12.0000015 h -4 a 6,6 0 0 0 -6,6.0000009 c 0,3.6100006 2.462,5.9660006 8,8.4800006 z"
           id="path13" />
      </g>
    </g>
    <path
       d="M 6.3209191,6.9532221 5.8230211,10.039352 Q 6.0103751,9.6351325 6.1951613,9.3750255 6.3825153,9.1114045 6.6186319,8.9005069 6.8573146,8.6896097 7.0446677,8.6052507 q 0.187354,-0.087874 0.3618743,-0.087874 0.2951459,0 0.4619673,0.1757476 0.1693882,0.1757477 0.1693882,0.4147643 0,0.133569 -0.048766,0.246047 -0.046194,0.112478 -0.1385897,0.179263 -0.089827,0.06327 -0.187354,0.06327 -0.1257577,0 -0.2848792,-0.133568 -0.1565554,-0.137084 -0.1976199,-0.154658 -0.056465,-0.03163 -0.1129249,-0.03163 -0.07699,0 -0.1642553,0.05272 -0.08726,0.05273 -0.2181508,0.196838 L 6.957405,10.559564 q 0.1180587,0.449915 0.1719542,0.569423 0.066728,0.154658 0.1462896,0.224957 0.079562,0.0703 0.1488564,0.0703 0.1488564,0 0.3747071,-0.256592 l 0.2797462,0.453429 q -0.4234697,0.572938 -0.9393334,0.572938 -0.3079779,0 -0.5184297,-0.231987 -0.2104493,-0.231986 -0.343906,-0.769774 L 6.0668376,10.341638 Q 5.8461198,10.752887 5.7049633,11.160622 5.5638067,11.568357 5.4560139,12.10966 H 4.6655369 L 5.3482219,7.9268646 H 4.9401508 L 5.0556426,7.2484783 Q 5.3122913,7.2414449 5.5432749,7.1746639 5.7742585,7.1078794 6.0668376,6.9532218 Z M 9.6753148,8.5173769 9.2929087,10.847791 q -0.030796,0.193323 -0.030796,0.260107 0,0.112478 0.048766,0.179263 0.048766,0.06678 0.1283238,0.06678 0.1231916,0 0.2669142,-0.165203 0.2386835,-0.270651 0.4234693,-0.804924 0.184788,-0.5342735 0.323378,-1.3989518 l 0.06159,-0.3831301 h 0.813576 l -0.36444,2.2460589 q -0.02566,0.158173 -0.02566,0.246047 0,0.108964 0.05903,0.189808 0.05903,0.07733 0.153989,0.07733 0.282313,0 0.541528,-0.516698 0.261782,-0.520213 0.261782,-0.9455225 0,-0.140598 -0.01796,-0.253076 -0.0077,-0.0457 -0.07186,-0.242532 -0.06673,-0.200353 -0.077,-0.249562 -0.0154,-0.08084 -0.0154,-0.165203 0,-0.2530767 0.136023,-0.3971898 0.138591,-0.147628 0.28488,-0.147628 0.118058,0 0.230984,0.1019339 0.115492,0.1019339 0.169388,0.2811963 0.05647,0.1757476 0.05647,0.4815486 0,0.7205655 -0.272047,1.4270715 -0.272047,0.702991 -0.703217,1.11424 -0.369574,0.347981 -0.772512,0.347981 -0.256648,0 -0.420903,-0.119509 -0.164261,-0.119508 -0.256655,-0.34095 -0.06159,-0.144113 -0.08469,-0.38313 -0.1565553,0.302286 -0.3208098,0.485063 -0.1642552,0.182778 -0.3387764,0.270652 -0.1745203,0.08436 -0.3644404,0.08436 -0.3054118,0 -0.4953319,-0.239016 -0.1873531,-0.242532 -0.1873531,-0.579968 0,-0.05975 0.015398,-0.203867 0.015398,-0.189808 0.030796,-0.277682 L 8.707748,9.4980485 H 8.3048092 L 8.4228679,8.8231777 Q 8.6384527,8.8196668 8.913066,8.7388191 9.1902471,8.6579748 9.4391956,8.517377 Z m 5.4409462,0.39016 0.161689,-0.3058011 h 0.590292 L 15.47557,10.956755 q -0.03849,0.242532 -0.03849,0.309316 0,0.06327 0.03337,0.105448 0.03337,0.03866 0.0847,0.03866 0.05389,0 0.141157,-0.05976 0.08983,-0.05975 0.18992,-0.186292 l 0.295146,0.463974 q -0.23355,0.302286 -0.456835,0.435854 -0.220717,0.130053 -0.451701,0.130053 -0.161688,0 -0.295145,-0.08084 -0.130892,-0.07733 -0.223285,-0.217927 -0.08983,-0.140598 -0.125757,-0.319861 -0.112925,0.189808 -0.272048,0.337436 -0.156555,0.147628 -0.305412,0.214412 -0.146289,0.06678 -0.325943,0.06678 -0.27718,0 -0.487632,-0.175747 -0.207885,-0.175748 -0.32851,-0.492094 -0.118059,-0.319861 -0.118059,-0.762745 0,-0.9138875 0.4748,-1.5782145 0.4748,-0.6678409 1.088189,-0.6678409 0.223285,0 0.395239,0.087874 0.171955,0.084359 0.367008,0.3022862 z M 14.90581,9.4910195 q -0.141157,-0.147628 -0.238683,-0.200353 -0.09753,-0.05272 -0.200186,-0.05272 -0.33621,0 -0.56206,0.495608 -0.223284,0.4956085 -0.223284,1.0720605 0,0.242532 0.08983,0.39719 0.08983,0.151143 0.215584,0.151143 0.141156,0 0.277181,-0.137083 0.187353,-0.193323 0.359307,-0.636207 0.174522,-0.442884 0.282314,-1.0896345 z m 1.914598,0 H 16.414903 L 16.535528,8.819663 q 0.490199,-0.045695 1.000929,-0.3022861 h 0.259215 l -0.379839,2.2882351 q -0.04107,0.249562 -0.04107,0.337435 0,0.09842 0.04877,0.154658 0.04877,0.05624 0.141156,0.05624 0.112926,0 0.246383,-0.140598 0.19762,-0.210897 0.359308,-0.643236 0.161688,-0.43234 0.264347,-1.0790905 l 0.141157,-0.889284 h 0.81101 l -0.528696,3.2126685 q -0.159122,0.949037 -0.587725,1.402466 -0.4748,0.499124 -1.206248,0.499124 -0.51073,0 -0.764813,-0.239017 -0.254081,-0.239017 -0.254081,-0.551848 0,-0.210897 0.112925,-0.36204 0.112925,-0.151143 0.272048,-0.151143 0.09496,0 0.187353,0.06327 0.06416,0.04921 0.177087,0.235502 0.102659,0.168718 0.195053,0.231987 0.09239,0.06327 0.215585,0.06327 0.143722,0 0.292579,-0.09139 0.148856,-0.08787 0.269481,-0.256591 0.120625,-0.168718 0.202752,-0.41125 0.0847,-0.239017 0.133457,-0.618632 -0.13859,0.217927 -0.264348,0.330406 -0.123191,0.112478 -0.274614,0.172232 -0.151422,0.06327 -0.323376,0.06327 -0.225851,0 -0.369575,-0.101934 -0.143722,-0.105448 -0.238682,-0.309315 -0.09239,-0.207383 -0.09239,-0.414765 0,-0.165203 0.05389,-0.499124 z"
       id="text14"
       style="font-style:italic;font-weight:600;font-size:6.15119px;font-family:'Bookman Old Style';-inkscape-font-specification:'Bookman Old Style, Semi-Bold Italic';fill:#971797;stroke-width:23.0669;stroke-linecap:round;stroke-linejoin:round"
       aria-label="kway" />
  </g>
</svg>
