<svg  version="1.1" xmlns="http://www.w3.org/2000/svg" x="0px" y="0px" viewBox="0 0 256 256" enable-background="new 0 0 256 256" >
<metadata> Svg Vector Icons : http://www.onlinewebfonts.com/icon </metadata>
<g><g><path d="M163.6,198.7c-2.9-7-12.5-18.9-28.5-35.4c-4.3-4.4-4-7.8-2.5-17.9l0.2-1.1c1-6.9,2.8-11,26.4-14.7c12-1.9,15.1,2.8,19.5,9.4c0.5,0.7,1,1.4,1.5,2.1c4.1,6,7.2,7.3,11.9,9.4c2.1,0.9,4.7,2.1,8.2,4c8.3,4.6,8.3,9.9,8.3,21.4v1.3c0,18.3-6.9,28.3-9.5,31.5c-10.2,8.7-22.1,15.5-35.1,20C170.2,216.8,165.3,202.8,163.6,198.7L163.6,198.7z M128,21.3c16.8,0,32.8,3.8,47,10.5c-7.8,4.9-19,12.5-23.7,18.7c-1.7,2.3-3.2,4.5-4.6,6.5c-4.5,6.7-6.7,9.7-10.9,10.2c-2.1,0.2-4.8,0.1-7.8-0.1c-7.9-0.5-18.6-1.2-22.1,8c-2.2,5.8-2.6,21.6,4.5,29.9c1.1,1.3,1.3,3.7,0.6,6.5c-1,3.6-3.1,5.8-3.7,6.2c-1.2-0.7-3.7-3.5-5.3-5.4c-4-4.5-8.9-10.2-15.3-11.9c-2.3-0.6-4.9-1.2-7.4-1.7c-7-1.4-14.8-3.1-16.6-6.9c-1.3-2.8-1.3-6.7-1.3-10.8c0-5.2,0-11.1-2.6-16.7c-2.2-5-6.2-7.6-10.3-8.9C68.4,34.4,96.7,21.3,128,21.3L128,21.3z M10,128c0,64,52.8,116,118,116c65.2,0,118-51.9,118-116S193.2,12,128,12C62.8,12,10,64,10,128L10,128z"/></g></g>
</svg>