<svg version="1.1" xmlns="http://www.w3.org/2000/svg" x="0px" y="0px" viewBox="0 0 256 256" enable-background="new 0 0 256 256" >
<metadata> Svg Vector Icons : http://www.onlinewebfonts.com/icon </metadata>
<g><g><g><path  d="M125.9,10.6c-2.1,1.2-98.3,94.9-98.6,96.1c-0.2,0.6-0.2,29-0.2,63l0.2,61.9l1.4,2.9c1.9,4.1,5.5,7.8,9.6,9.8l3.4,1.6H128h86.3l2.9-1.3c5.3-2.5,9.3-7.2,10.9-12.7c0.7-2.5,0.8-9.6,0.8-63.8c0-33.6-0.2-61.3-0.3-61.8c-0.5-1.2-97.3-95-98.8-95.7C128.1,9.8,127.2,9.8,125.9,10.6z M173.9,66.4l45.3,43.9l-0.1,59.6l-0.2,59.6l-1.2,2c-0.7,1.1-2.2,2.6-3.3,3.3l-2.1,1.4l-22.2,0.2l-22.2,0.2v-44v-43.9H128H88.1v43.9v43.9H66.5c-20,0-21.9-0.1-23.8-1c-2.6-1.1-4.7-3.5-5.4-6.1c-0.3-1.2-0.5-21.8-0.5-60.5v-58.6l45.4-44c24.9-24.2,45.6-44,45.9-43.9C128.3,22.4,149,42.3,173.9,66.4z M158,197.4v39H128H97.9v-39v-39H128H158L158,197.4L158,197.4z"/></g></g></g>
</svg>