            <svg
                version="1.1"
                xmlns="http://www.w3.org/2000/svg"
                x="0px"
                y="0px"
                viewBox="0 0 256 256"
                enable-background="new 0 0 256 256"
            >
                      <metadata>
                       
                      </metadata>
                      <g>
                        <g>
                          <g>
                            <path d="M173.7,14.2c-23.9,16.2-44.9,28.4-59.9,35c-3.7,1.7-10.9,4.4-15.9,6.2c-9.3,3.2-12,4.5-14.5,7.3c-1.8,2-4.7,7.7-6.9,13.8l-1.7,4.6l-16.7,0.2l-16.6,0.2l-3,1.5c-3.8,1.9-7.5,5.5-9.2,9.3L27.8,95v33v33l1.4,2.9c1.7,3.7,5.6,7.7,9.4,9.4l2.9,1.4l14.4,0.2l14.4,0.2l58.6-58.1l58.6-58.1l0-3.3c0.3-17.9,0-41.5-0.6-42.4c-0.3-0.6-1.3-1.5-2.2-2C181.8,9.2,180.4,9.6,173.7,14.2z" />
                            <path
                              
                              d="M217.9,43.2c-1.6,1-173.4,171.2-175.9,174.3c-2.9,3.6-1.5,8.8,2.9,10.6c4.7,2,0.4,5.9,64.1-57.4c31.6-31.4,71.3-70.8,88.2-87.5l30.8-30.6l0.2-2.5c0.3-3.1-0.7-5.3-3-6.8C223.1,42,219.9,42,217.9,43.2z"
                            />
                            <path
                              
                              d="M140,151.5c-25.9,25.7-47.1,46.8-47.3,47c-0.1,0.2,1.9,1,4.3,1.8c19.7,6.4,39.6,16.9,71,37.7c7.1,4.7,12.6,8,13.3,8c1.9,0,4.5-1.3,5.4-2.7c0.8-1.2,0.9-6.2,0.9-69.6c0-37.6-0.1-68.5-0.3-68.6C187.2,104.9,165.9,125.8,140,151.5z"
                            />
                          </g>
                        </g>
                      </g>
                    </svg>