                    <svg
                      version="1.1"
                      xmlns="http://www.w3.org/2000/svg"
                      x="0px"
                      y="0px"
                      viewBox="0 0 256 256"
                      enable-background="new 0 0 256 256"
                    >
                      <metadata>
                        {" "}
                        Svg Vector Icons : http://www.onlinewebfonts.com/icon{" "}
                      </metadata>
                      <g>
                        <g>
                          <g>
                            <path d="M23.5,11.4L22,12.8v115.3v115.3l1.3,1.2c1.8,1.7,5.1,1.7,6.6,0.1c1.1-1.2,1.1-2.8,1.3-41l0.1-39.8l101.3-0.1l101.3-0.2l-26.9-32.2l-26.9-32.2l2.5-3c18.4-21.7,50.8-60.9,50.5-61.1c-0.1-0.2-45.6-0.3-101-0.3H31.4V24.5c0-10.6-0.3-12.2-2.3-13.8C27.6,9.5,25,9.8,23.5,11.4z M212.9,45.5c-0.5,0.6-10.7,12.9-22.9,27.5l-22,26.4l22.8,27.3c12.5,15,22.8,27.4,22.8,27.6c0,0.2-41,0.4-91.1,0.4H31.4V99.6V44.5h91.1C209,44.5,213.7,44.6,212.9,45.5z" />
                          </g>
                        </g>
                      </g>
                    </svg>